<svg width="1403" height="358" viewBox="0 0 1403 358" fill="none" xmlns="http://www.w3.org/2000/svg">
<rect width="1403" height="358" fill="white"/>
<path d="M425 118L413.466 118.544L419.704 128.261L425 118ZM344.54 170.842L417.967 123.704L416.886 122.021L343.46 169.158L344.54 170.842Z" fill="#141414"/>
<path d="M425 248L419.704 237.739L413.466 247.456L425 248ZM343.46 196.842L416.886 243.979L417.967 242.296L344.54 195.158L343.46 196.842Z" fill="#141414"/>
<path d="M1058 170L1046.47 169.456L1052.7 159.739L1058 170ZM977.54 117.158L1050.97 164.296L1049.89 165.979L976.46 118.842L977.54 117.158Z" fill="#141414"/>
<path d="M1058 196L1052.7 206.261L1046.47 196.544L1058 196ZM976.46 247.158L1049.89 200.021L1050.97 201.704L977.54 248.842L976.46 247.158Z" fill="#141414"/>
<path d="M636 248L635.612 236.46L625.812 242.566L636 248ZM554.151 118.529L630.392 240.89L632.089 239.833L555.849 117.471L554.151 118.529Z" fill="#141414"/>
<path d="M636 118L625.812 123.434L635.612 129.54L636 118ZM555.849 248.529L632.089 126.167L630.392 125.11L554.151 247.471L555.849 248.529Z" fill="#141414"/>
<path d="M636 275L626 269.226V280.774L636 275ZM636 93L626 87.2265V98.7735L636 93ZM555 276H627V274H555V276ZM555 94H627V92H555V94Z" fill="#141414"/>
<path d="M847 247L846.612 235.46L836.812 241.566L847 247ZM765.151 117.529L841.392 239.89L843.089 238.833L766.849 116.471L765.151 117.529Z" fill="#141414"/>
<path d="M847 117L836.812 122.434L846.612 128.54L847 117ZM766.849 247.529L843.089 125.167L841.392 124.11L765.151 246.471L766.849 247.529Z" fill="#141414"/>
<path d="M847 274L837 268.226V279.774L847 274ZM847 92L837 86.2265V97.7735L847 92ZM766 275H838V273H766V275ZM766 93H838V91H766V93Z" fill="#141414"/>
<path d="M215 183L205 177.226V188.774L215 183ZM134 184H206V182H134V184Z" fill="#141414"/>
<path d="M1270 183L1260 177.226V188.774L1270 183ZM1190 184H1261V182H1190V184Z" fill="#141414"/>
<rect x="4" y="119" width="128" height="128" fill="#141414" stroke="#141414" stroke-width="2"/>
<path d="M34.9585 176.072C34.8305 176.296 34.6918 176.461 34.5425 176.568C34.4038 176.664 34.2278 176.712 34.0145 176.712C33.7905 176.712 33.5452 176.632 33.2785 176.472C33.0225 176.301 32.7132 176.115 32.3505 175.912C31.9878 175.709 31.5612 175.528 31.0705 175.368C30.5905 175.197 30.0198 175.112 29.3585 175.112C28.7612 175.112 28.2385 175.187 27.7905 175.336C27.3425 175.475 26.9638 175.672 26.6545 175.928C26.3558 176.184 26.1318 176.493 25.9825 176.856C25.8332 177.208 25.7585 177.597 25.7585 178.024C25.7585 178.568 25.9078 179.021 26.2065 179.384C26.5158 179.747 26.9212 180.056 27.4225 180.312C27.9238 180.568 28.4945 180.797 29.1345 181C29.7745 181.203 30.4305 181.421 31.1025 181.656C31.7745 181.88 32.4305 182.147 33.0705 182.456C33.7105 182.755 34.2812 183.139 34.7825 183.608C35.2838 184.067 35.6838 184.632 35.9825 185.304C36.2918 185.976 36.4465 186.792 36.4465 187.752C36.4465 188.797 36.2652 189.779 35.9025 190.696C35.5505 191.603 35.0278 192.397 34.3345 193.08C33.6518 193.752 32.8145 194.285 31.8225 194.68C30.8305 195.064 29.6945 195.256 28.4145 195.256C27.6785 195.256 26.9532 195.181 26.2385 195.032C25.5238 194.893 24.8358 194.691 24.1745 194.424C23.5238 194.157 22.9105 193.837 22.3345 193.464C21.7585 193.091 21.2465 192.675 20.7985 192.216L22.0625 190.152C22.1692 190.003 22.3078 189.88 22.4785 189.784C22.6492 189.677 22.8305 189.624 23.0225 189.624C23.2892 189.624 23.5772 189.736 23.8865 189.96C24.1958 190.173 24.5638 190.413 24.9905 190.68C25.4172 190.947 25.9132 191.192 26.4785 191.416C27.0545 191.629 27.7425 191.736 28.5425 191.736C29.7692 191.736 30.7185 191.448 31.3905 190.872C32.0625 190.285 32.3985 189.448 32.3985 188.36C32.3985 187.752 32.2438 187.256 31.9345 186.872C31.6358 186.488 31.2358 186.168 30.7345 185.912C30.2332 185.645 29.6625 185.421 29.0225 185.24C28.3825 185.059 27.7318 184.861 27.0705 184.648C26.4092 184.435 25.7585 184.179 25.1185 183.88C24.4785 183.581 23.9078 183.192 23.4065 182.712C22.9052 182.232 22.4998 181.635 22.1905 180.92C21.8918 180.195 21.7425 179.304 21.7425 178.248C21.7425 177.405 21.9078 176.584 22.2385 175.784C22.5798 174.984 23.0705 174.275 23.7105 173.656C24.3505 173.037 25.1398 172.541 26.0785 172.168C27.0172 171.795 28.0945 171.608 29.3105 171.608C30.6758 171.608 31.9345 171.821 33.0865 172.248C34.2385 172.675 35.2198 173.272 36.0305 174.04L34.9585 176.072ZM56.361 175.4H49.385V195H45.081V175.4H38.105V171.864H56.361V175.4ZM69.3625 186.264L66.5465 178.568C66.4078 178.227 66.2638 177.821 66.1145 177.352C65.9652 176.883 65.8158 176.376 65.6665 175.832C65.5278 176.376 65.3838 176.888 65.2345 177.368C65.0852 177.837 64.9412 178.248 64.8025 178.6L62.0025 186.264H69.3625ZM76.9625 195H73.6345C73.2612 195 72.9572 194.909 72.7225 194.728C72.4878 194.536 72.3118 194.301 72.1945 194.024L70.4665 189.304H60.8825L59.1545 194.024C59.0692 194.269 58.9038 194.493 58.6585 194.696C58.4132 194.899 58.1092 195 57.7465 195H54.3865L63.4905 171.864H67.8745L76.9625 195ZM86.3493 182.872C87.1599 182.872 87.8639 182.771 88.4613 182.568C89.0693 182.365 89.5653 182.088 89.9493 181.736C90.3439 181.373 90.6373 180.947 90.8293 180.456C91.0213 179.965 91.1173 179.427 91.1173 178.84C91.1173 177.667 90.7279 176.765 89.9493 176.136C89.1813 175.507 88.0026 175.192 86.4133 175.192H83.6613V182.872H86.3493ZM97.4213 195H93.5333C92.7973 195 92.2639 194.712 91.9333 194.136L87.0693 186.728C86.8879 186.451 86.6853 186.253 86.4613 186.136C86.2479 186.019 85.9279 185.96 85.5013 185.96H83.6613V195H79.3573V171.864H86.4133C87.9813 171.864 89.3253 172.029 90.4453 172.36C91.5759 172.68 92.4986 173.133 93.2133 173.72C93.9386 174.307 94.4719 175.011 94.8133 175.832C95.1546 176.643 95.3253 177.539 95.3253 178.52C95.3253 179.299 95.2079 180.035 94.9733 180.728C94.7493 181.421 94.4186 182.051 93.9813 182.616C93.5546 183.181 93.0213 183.677 92.3813 184.104C91.7519 184.531 91.0319 184.867 90.2213 185.112C90.4986 185.272 90.7546 185.464 90.9893 185.688C91.2239 185.901 91.4373 186.157 91.6293 186.456L97.4213 195ZM115.486 175.4H108.51V195H104.206V175.4H97.23V171.864H115.486V175.4Z" fill="white"/>
<path d="M16.3591 104.324C16.3591 105.836 16.1951 107.152 15.8671 108.272C15.5471 109.384 15.0991 110.304 14.5231 111.032C13.9551 111.76 13.2791 112.304 12.4951 112.664C11.7191 113.016 10.8791 113.192 9.97506 113.192C9.07106 113.192 8.23106 113.016 7.45506 112.664C6.68706 112.304 6.01906 111.76 5.45106 111.032C4.88306 110.304 4.43906 109.384 4.11906 108.272C3.79906 107.152 3.63906 105.836 3.63906 104.324C3.63906 102.804 3.79906 101.488 4.11906 100.376C4.43906 99.264 4.88306 98.344 5.45106 97.616C6.01906 96.888 6.68706 96.348 7.45506 95.996C8.23106 95.636 9.07106 95.456 9.97506 95.456C10.8791 95.456 11.7191 95.636 12.4951 95.996C13.2791 96.348 13.9551 96.888 14.5231 97.616C15.0991 98.344 15.5471 99.264 15.8671 100.376C16.1951 101.488 16.3591 102.804 16.3591 104.324ZM13.2991 104.324C13.2991 103.068 13.2071 102.028 13.0231 101.204C12.8391 100.38 12.5911 99.724 12.2791 99.236C11.9751 98.748 11.6231 98.408 11.2231 98.216C10.8231 98.016 10.4071 97.916 9.97506 97.916C9.55106 97.916 9.13906 98.016 8.73906 98.216C8.34706 98.408 7.99906 98.748 7.69506 99.236C7.39106 99.724 7.14706 100.38 6.96306 101.204C6.78706 102.028 6.69906 103.068 6.69906 104.324C6.69906 105.58 6.78706 106.62 6.96306 107.444C7.14706 108.268 7.39106 108.924 7.69506 109.412C7.99906 109.9 8.34706 110.244 8.73906 110.444C9.13906 110.636 9.55106 110.732 9.97506 110.732C10.4071 110.732 10.8231 110.636 11.2231 110.444C11.6231 110.244 11.9751 109.9 12.2791 109.412C12.5911 108.924 12.8391 108.268 13.0231 107.444C13.2071 106.62 13.2991 105.58 13.2991 104.324Z" fill="#A349A4"/>
<rect x="214.5" y="118.5" width="25" height="25" fill="#141414" stroke="#BBBBBB"/>
<rect x="240.5" y="118.5" width="25" height="25" fill="#141414" stroke="#BBBBBB"/>
<rect x="266.5" y="118.5" width="25" height="25" fill="#141414" stroke="#BBBBBB"/>
<rect x="292.5" y="118.5" width="25" height="25" fill="#141414" stroke="#BBBBBB"/>
<rect x="318.5" y="118.5" width="25" height="25" fill="#141414" stroke="#BBBBBB"/>
<rect x="214.5" y="144.5" width="25" height="25" fill="#141414" stroke="#BBBBBB"/>
<rect x="240.5" y="144.5" width="25" height="25" fill="#141414" stroke="#BBBBBB"/>
<rect x="266.5" y="144.5" width="25" height="25" fill="#141414" stroke="#BBBBBB"/>
<rect x="292.5" y="144.5" width="25" height="25" fill="#141414" stroke="#BBBBBB"/>
<rect x="318.5" y="144.5" width="25" height="25" fill="#141414" stroke="#BBBBBB"/>
<rect x="214.5" y="170.5" width="25" height="25" fill="#141414" stroke="#BBBBBB"/>
<rect x="240.5" y="170.5" width="25" height="25" fill="#141414" stroke="#BBBBBB"/>
<rect x="266.5" y="170.5" width="25" height="25" fill="#141414" stroke="#BBBBBB"/>
<rect x="292.5" y="170.5" width="25" height="25" fill="#141414" stroke="#BBBBBB"/>
<rect x="318.5" y="170.5" width="25" height="25" fill="#141414" stroke="#BBBBBB"/>
<rect x="214.5" y="196.5" width="25" height="25" fill="#141414" stroke="#BBBBBB"/>
<rect x="240.5" y="196.5" width="25" height="25" fill="#141414" stroke="#BBBBBB"/>
<rect x="266.5" y="196.5" width="25" height="25" fill="#141414" stroke="#BBBBBB"/>
<rect x="292.5" y="196.5" width="25" height="25" fill="#141414" stroke="#BBBBBB"/>
<path d="M318.5 196.5H343.5V221.5H318.5V196.5Z" fill="#141414" stroke="#BBBBBB"/>
<rect x="214.5" y="222.5" width="25" height="25" fill="#141414" stroke="#BBBBBB"/>
<rect x="240.5" y="222.5" width="25" height="25" fill="#FF4136" stroke="#BBBBBB"/>
<rect x="266.5" y="222.5" width="25" height="25" fill="#FF4136" stroke="#BBBBBB"/>
<rect x="292.5" y="222.5" width="25" height="25" fill="#141414" stroke="#BBBBBB"/>
<rect x="318.5" y="222.5" width="25" height="25" fill="#FF4136" stroke="#BBBBBB"/>
<path d="M226.459 110.78V113H216.859V110.78H220.375V100.664C220.375 100.264 220.387 99.852 220.411 99.428L217.915 101.516C217.771 101.628 217.627 101.7 217.483 101.732C217.347 101.756 217.215 101.756 217.087 101.732C216.967 101.708 216.859 101.668 216.763 101.612C216.667 101.548 216.595 101.48 216.547 101.408L215.611 100.124L220.903 95.624H223.339V110.78H226.459Z" fill="#A349A4"/>
<rect x="1059.5" y="118.5" width="25" height="25" fill="#141414" stroke="#BBBBBB"/>
<rect x="1085.5" y="118.5" width="25" height="25" fill="#FF4136" stroke="#BBBBBB"/>
<rect x="1111.5" y="118.5" width="25" height="25" fill="#FF4136" stroke="#BBBBBB"/>
<rect x="1137.5" y="118.5" width="25" height="25" fill="#141414" stroke="#BBBBBB"/>
<rect x="1163.5" y="118.5" width="25" height="25" fill="#FF4136" stroke="#BBBBBB"/>
<rect x="1059.5" y="144.5" width="25" height="25" fill="#141414" stroke="#BBBBBB"/>
<rect x="1085.5" y="144.5" width="25" height="25" fill="#FF4136" stroke="#BBBBBB"/>
<rect x="1111.5" y="144.5" width="25" height="25" fill="#FF4136" stroke="#BBBBBB"/>
<rect x="1137.5" y="144.5" width="25" height="25" fill="#141414" stroke="#BBBBBB"/>
<rect x="1163.5" y="144.5" width="25" height="25" fill="#FF4136" stroke="#BBBBBB"/>
<rect x="1059.5" y="170.5" width="25" height="25" fill="#141414" stroke="#BBBBBB"/>
<rect x="1085.5" y="170.5" width="25" height="25" fill="#FF4136" stroke="#BBBBBB"/>
<rect x="1111.5" y="170.5" width="25" height="25" fill="#FF4136" stroke="#BBBBBB"/>
<rect x="1137.5" y="170.5" width="25" height="25" fill="#141414" stroke="#BBBBBB"/>
<rect x="1163.5" y="170.5" width="25" height="25" fill="#FF4136" stroke="#BBBBBB"/>
<rect x="1059.5" y="196.5" width="25" height="25" fill="#141414" stroke="#BBBBBB"/>
<rect x="1085.5" y="196.5" width="25" height="25" fill="#FF4136" stroke="#BBBBBB"/>
<rect x="1111.5" y="196.5" width="25" height="25" fill="#FF4136" stroke="#BBBBBB"/>
<rect x="1137.5" y="196.5" width="25" height="25" fill="#141414" stroke="#BBBBBB"/>
<path d="M1163.5 196.5H1188.5V221.5H1163.5V196.5Z" fill="#FF4136" stroke="#BBBBBB"/>
<rect x="1059.5" y="222.5" width="25" height="25" fill="#141414" stroke="#BBBBBB"/>
<rect x="1085.5" y="222.5" width="25" height="25" fill="#FF4136" stroke="#BBBBBB"/>
<rect x="1111.5" y="222.5" width="25" height="25" fill="#FF4136" stroke="#BBBBBB"/>
<rect x="1137.5" y="222.5" width="25" height="25" fill="#141414" stroke="#BBBBBB"/>
<rect x="1163.5" y="222.5" width="25" height="25" fill="#FF4136" stroke="#BBBBBB"/>
<path d="M1066 110.876C1066.49 110.876 1066.92 110.808 1067.28 110.672C1067.65 110.528 1067.96 110.332 1068.21 110.084C1068.46 109.836 1068.66 109.54 1068.78 109.196C1068.91 108.852 1068.98 108.48 1068.98 108.08C1068.98 107.128 1068.71 106.408 1068.18 105.92C1067.66 105.432 1066.93 105.188 1066 105.188C1065.07 105.188 1064.34 105.432 1063.82 105.92C1063.29 106.408 1063.02 107.128 1063.02 108.08C1063.02 108.48 1063.09 108.852 1063.22 109.196C1063.34 109.54 1063.53 109.836 1063.78 110.084C1064.04 110.332 1064.35 110.528 1064.72 110.672C1065.08 110.808 1065.51 110.876 1066 110.876ZM1066 97.688C1065.56 97.688 1065.18 97.756 1064.86 97.892C1064.54 98.028 1064.27 98.212 1064.06 98.444C1063.85 98.668 1063.69 98.928 1063.59 99.224C1063.49 99.52 1063.44 99.832 1063.44 100.16C1063.44 100.504 1063.48 100.84 1063.56 101.168C1063.65 101.488 1063.8 101.776 1064 102.032C1064.2 102.28 1064.46 102.48 1064.79 102.632C1065.12 102.784 1065.52 102.86 1066 102.86C1066.48 102.86 1066.88 102.784 1067.21 102.632C1067.54 102.48 1067.8 102.28 1068 102.032C1068.2 101.776 1068.34 101.488 1068.42 101.168C1068.51 100.84 1068.56 100.504 1068.56 100.16C1068.56 99.832 1068.5 99.52 1068.4 99.224C1068.3 98.928 1068.14 98.668 1067.93 98.444C1067.72 98.212 1067.46 98.028 1067.14 97.892C1066.82 97.756 1066.44 97.688 1066 97.688ZM1068.93 103.952C1069.98 104.296 1070.76 104.824 1071.27 105.536C1071.77 106.24 1072.02 107.104 1072.02 108.128C1072.02 108.896 1071.88 109.592 1071.58 110.216C1071.29 110.84 1070.88 111.372 1070.36 111.812C1069.83 112.252 1069.19 112.592 1068.45 112.832C1067.71 113.072 1066.9 113.192 1066 113.192C1065.1 113.192 1064.28 113.072 1063.54 112.832C1062.8 112.592 1062.17 112.252 1061.64 111.812C1061.12 111.372 1060.7 110.84 1060.41 110.216C1060.12 109.592 1059.98 108.896 1059.98 108.128C1059.98 107.104 1060.23 106.24 1060.73 105.536C1061.24 104.824 1062.02 104.296 1063.07 103.952C1062.23 103.6 1061.6 103.1 1061.18 102.452C1060.76 101.804 1060.55 101.024 1060.55 100.112C1060.55 99.456 1060.68 98.844 1060.95 98.276C1061.22 97.708 1061.6 97.216 1062.08 96.8C1062.56 96.376 1063.13 96.048 1063.79 95.816C1064.46 95.576 1065.2 95.456 1066 95.456C1066.8 95.456 1067.53 95.576 1068.2 95.816C1068.87 96.048 1069.44 96.376 1069.92 96.8C1070.4 97.216 1070.78 97.708 1071.04 98.276C1071.31 98.844 1071.45 99.456 1071.45 100.112C1071.45 101.024 1071.24 101.804 1070.81 102.452C1070.4 103.1 1069.77 103.6 1068.93 103.952Z" fill="#A349A4"/>
<rect x="1271" y="119" width="128" height="128" fill="#141414" stroke="#141414" stroke-width="2"/>
<path d="M1308.19 175.288V181.704H1316.29V185.016H1308.19V191.56H1318.46V195H1303.87V171.864H1318.46V175.288H1308.19ZM1341.78 171.864V195H1339.58C1339.23 195 1338.95 194.947 1338.71 194.84C1338.49 194.723 1338.27 194.531 1338.06 194.264L1325.98 178.84C1326.04 179.544 1326.07 180.195 1326.07 180.792V195H1322.28V171.864H1324.54C1324.72 171.864 1324.87 171.875 1325 171.896C1325.14 171.907 1325.26 171.939 1325.35 171.992C1325.46 172.035 1325.56 172.104 1325.66 172.2C1325.75 172.285 1325.86 172.403 1325.98 172.552L1338.1 188.04C1338.07 187.667 1338.04 187.299 1338.02 186.936C1338 186.573 1337.99 186.237 1337.99 185.928V171.864H1341.78ZM1367.48 183.432C1367.48 185.128 1367.2 186.685 1366.63 188.104C1366.07 189.523 1365.27 190.744 1364.25 191.768C1363.22 192.792 1361.99 193.587 1360.55 194.152C1359.11 194.717 1357.51 195 1355.75 195H1346.94V171.864H1355.75C1357.51 171.864 1359.11 172.152 1360.55 172.728C1361.99 173.293 1363.22 174.088 1364.25 175.112C1365.27 176.125 1366.07 177.341 1366.63 178.76C1367.2 180.179 1367.48 181.736 1367.48 183.432ZM1363.06 183.432C1363.06 182.163 1362.89 181.027 1362.55 180.024C1362.22 179.011 1361.74 178.157 1361.1 177.464C1360.47 176.76 1359.7 176.221 1358.79 175.848C1357.9 175.475 1356.88 175.288 1355.75 175.288H1351.26V191.576H1355.75C1356.88 191.576 1357.9 191.389 1358.79 191.016C1359.7 190.643 1360.47 190.109 1361.1 189.416C1361.74 188.712 1362.22 187.859 1362.55 186.856C1362.89 185.843 1363.06 184.701 1363.06 183.432Z" fill="white"/>
<path d="M1274 100.856C1274 101.824 1274.25 102.564 1274.74 103.076C1275.25 103.58 1275.96 103.832 1276.88 103.832C1277.36 103.832 1277.79 103.756 1278.16 103.604C1278.54 103.452 1278.86 103.244 1279.11 102.98C1279.37 102.716 1279.56 102.404 1279.69 102.044C1279.82 101.684 1279.89 101.296 1279.89 100.88C1279.89 100.408 1279.82 99.988 1279.68 99.62C1279.53 99.244 1279.33 98.928 1279.06 98.672C1278.8 98.416 1278.48 98.22 1278.12 98.084C1277.76 97.948 1277.36 97.88 1276.93 97.88C1276.48 97.88 1276.08 97.956 1275.72 98.108C1275.36 98.252 1275.05 98.456 1274.79 98.72C1274.54 98.984 1274.34 99.3 1274.2 99.668C1274.07 100.028 1274 100.424 1274 100.856ZM1277.94 106.268C1278.07 106.1 1278.2 105.936 1278.32 105.776C1278.44 105.616 1278.56 105.456 1278.67 105.296C1278.27 105.552 1277.83 105.748 1277.35 105.884C1276.87 106.012 1276.36 106.076 1275.84 106.076C1275.24 106.076 1274.65 105.972 1274.07 105.764C1273.5 105.556 1272.98 105.244 1272.54 104.828C1272.09 104.404 1271.72 103.884 1271.44 103.268C1271.17 102.644 1271.04 101.916 1271.04 101.084C1271.04 100.308 1271.18 99.58 1271.47 98.9C1271.76 98.22 1272.16 97.624 1272.68 97.112C1273.2 96.6 1273.82 96.196 1274.55 95.9C1275.28 95.604 1276.08 95.456 1276.96 95.456C1277.85 95.456 1278.65 95.596 1279.35 95.876C1280.06 96.156 1280.67 96.548 1281.16 97.052C1281.67 97.556 1282.05 98.16 1282.32 98.864C1282.59 99.568 1282.72 100.34 1282.72 101.18C1282.72 101.716 1282.68 102.224 1282.58 102.704C1282.49 103.184 1282.36 103.648 1282.2 104.096C1282.03 104.536 1281.82 104.968 1281.58 105.392C1281.34 105.816 1281.08 106.236 1280.78 106.652L1276.81 112.316C1276.67 112.508 1276.47 112.672 1276.2 112.808C1275.92 112.936 1275.62 113 1275.27 113H1272.55L1277.94 106.268Z" fill="#A349A4"/>
<rect x="425.5" y="40.5" width="25" height="25" fill="#141414" stroke="#BBBBBB"/>
<rect x="451.5" y="40.5" width="25" height="25" fill="#141414" stroke="#BBBBBB"/>
<rect x="477.5" y="40.5" width="25" height="25" fill="#141414" stroke="#BBBBBB"/>
<rect x="503.5" y="40.5" width="25" height="25" fill="#141414" stroke="#BBBBBB"/>
<rect x="529.5" y="40.5" width="25" height="25" fill="#141414" stroke="#BBBBBB"/>
<rect x="425.5" y="66.5" width="25" height="25" fill="#141414" stroke="#BBBBBB"/>
<rect x="451.5" y="66.5" width="25" height="25" fill="#141414" stroke="#BBBBBB"/>
<rect x="477.5" y="66.5" width="25" height="25" fill="#141414" stroke="#BBBBBB"/>
<rect x="503.5" y="66.5" width="25" height="25" fill="#141414" stroke="#BBBBBB"/>
<rect x="529.5" y="66.5" width="25" height="25" fill="#141414" stroke="#BBBBBB"/>
<rect x="425.5" y="92.5" width="25" height="25" fill="#141414" stroke="#BBBBBB"/>
<rect x="451.5" y="92.5" width="25" height="25" fill="#FF4136" stroke="#BBBBBB"/>
<rect x="477.5" y="92.5" width="25" height="25" fill="#FF4136" stroke="#BBBBBB"/>
<rect x="503.5" y="92.5" width="25" height="25" fill="#141414" stroke="#BBBBBB"/>
<rect x="529.5" y="92.5" width="25" height="25" fill="#FF4136" stroke="#BBBBBB"/>
<rect x="425.5" y="118.5" width="25" height="25" fill="#141414" stroke="#BBBBBB"/>
<rect x="451.5" y="118.5" width="25" height="25" fill="#141414" stroke="#BBBBBB"/>
<rect x="477.5" y="118.5" width="25" height="25" fill="#141414" stroke="#BBBBBB"/>
<rect x="503.5" y="118.5" width="25" height="25" fill="#141414" stroke="#BBBBBB"/>
<path d="M529.5 118.5H554.5V143.5H529.5V118.5Z" fill="#141414" stroke="#BBBBBB"/>
<rect x="425.5" y="144.5" width="25" height="25" fill="#141414" stroke="#BBBBBB"/>
<rect x="451.5" y="144.5" width="25" height="25" fill="#141414" stroke="#BBBBBB"/>
<rect x="477.5" y="144.5" width="25" height="25" fill="#141414" stroke="#BBBBBB"/>
<rect x="503.5" y="144.5" width="25" height="25" fill="#141414" stroke="#BBBBBB"/>
<rect x="529.5" y="144.5" width="25" height="25" fill="#141414" stroke="#BBBBBB"/>
<path d="M436.811 32.24C437.131 32.24 437.383 32.332 437.567 32.516C437.759 32.692 437.855 32.928 437.855 33.224V35H425.951V34.016C425.951 33.816 425.991 33.608 426.071 33.392C426.159 33.168 426.295 32.968 426.479 32.792L431.747 27.512C432.187 27.064 432.579 26.636 432.923 26.228C433.275 25.82 433.567 25.416 433.799 25.016C434.031 24.616 434.207 24.212 434.327 23.804C434.455 23.388 434.519 22.952 434.519 22.496C434.519 22.08 434.459 21.716 434.339 21.404C434.219 21.084 434.047 20.816 433.823 20.6C433.607 20.384 433.343 20.224 433.031 20.12C432.727 20.008 432.383 19.952 431.999 19.952C431.647 19.952 431.319 20.004 431.015 20.108C430.719 20.204 430.455 20.344 430.223 20.528C429.991 20.704 429.795 20.912 429.635 21.152C429.475 21.392 429.355 21.656 429.275 21.944C429.139 22.312 428.963 22.556 428.747 22.676C428.531 22.796 428.219 22.824 427.811 22.76L426.251 22.484C426.371 21.652 426.603 20.924 426.947 20.3C427.291 19.668 427.719 19.144 428.231 18.728C428.751 18.304 429.343 17.988 430.007 17.78C430.679 17.564 431.399 17.456 432.167 17.456C432.967 17.456 433.699 17.576 434.363 17.816C435.027 18.048 435.595 18.38 436.067 18.812C436.539 19.244 436.907 19.764 437.171 20.372C437.435 20.98 437.567 21.656 437.567 22.4C437.567 23.04 437.471 23.632 437.279 24.176C437.095 24.72 436.843 25.24 436.523 25.736C436.211 26.232 435.843 26.712 435.419 27.176C434.995 27.64 434.551 28.112 434.087 28.592L430.175 32.588C430.551 32.476 430.923 32.392 431.291 32.336C431.667 32.272 432.023 32.24 432.359 32.24H436.811Z" fill="#A349A4"/>
<rect x="425.5" y="196.5" width="25" height="25" fill="#141414" stroke="#BBBBBB"/>
<rect x="451.5" y="196.5" width="25" height="25" fill="#141414" stroke="#BBBBBB"/>
<rect x="477.5" y="196.5" width="25" height="25" fill="#141414" stroke="#BBBBBB"/>
<rect x="503.5" y="196.5" width="25" height="25" fill="#141414" stroke="#BBBBBB"/>
<rect x="529.5" y="196.5" width="25" height="25" fill="#141414" stroke="#BBBBBB"/>
<rect x="425.5" y="222.5" width="25" height="25" fill="#141414" stroke="#BBBBBB"/>
<rect x="451.5" y="222.5" width="25" height="25" fill="#141414" stroke="#BBBBBB"/>
<rect x="477.5" y="222.5" width="25" height="25" fill="#141414" stroke="#BBBBBB"/>
<rect x="503.5" y="222.5" width="25" height="25" fill="#141414" stroke="#BBBBBB"/>
<rect x="529.5" y="222.5" width="25" height="25" fill="#141414" stroke="#BBBBBB"/>
<rect x="425.5" y="248.5" width="25" height="25" fill="#141414" stroke="#BBBBBB"/>
<rect x="451.5" y="248.5" width="25" height="25" fill="#141414" stroke="#BBBBBB"/>
<rect x="477.5" y="248.5" width="25" height="25" fill="#141414" stroke="#BBBBBB"/>
<rect x="503.5" y="248.5" width="25" height="25" fill="#141414" stroke="#BBBBBB"/>
<rect x="529.5" y="248.5" width="25" height="25" fill="#141414" stroke="#BBBBBB"/>
<rect x="425.5" y="274.5" width="25" height="25" fill="#141414" stroke="#BBBBBB"/>
<rect x="451.5" y="274.5" width="25" height="25" fill="#FF4136" stroke="#BBBBBB"/>
<rect x="477.5" y="274.5" width="25" height="25" fill="#FF4136" stroke="#BBBBBB"/>
<rect x="503.5" y="274.5" width="25" height="25" fill="#141414" stroke="#BBBBBB"/>
<path d="M529.5 274.5H554.5V299.5H529.5V274.5Z" fill="#FF4136" stroke="#BBBBBB"/>
<rect x="425.5" y="300.5" width="25" height="25" fill="#141414" stroke="#BBBBBB"/>
<rect x="451.5" y="300.5" width="25" height="25" fill="#FF4136" stroke="#BBBBBB"/>
<rect x="477.5" y="300.5" width="25" height="25" fill="#FF4136" stroke="#BBBBBB"/>
<rect x="503.5" y="300.5" width="25" height="25" fill="#141414" stroke="#BBBBBB"/>
<rect x="529.5" y="300.5" width="25" height="25" fill="#FF4136" stroke="#BBBBBB"/>
<path d="M426.335 178.484C426.455 177.652 426.687 176.924 427.031 176.3C427.375 175.668 427.803 175.144 428.315 174.728C428.835 174.304 429.427 173.988 430.091 173.78C430.763 173.564 431.483 173.456 432.251 173.456C433.051 173.456 433.771 173.572 434.411 173.804C435.059 174.028 435.611 174.344 436.067 174.752C436.523 175.152 436.871 175.624 437.111 176.168C437.359 176.712 437.483 177.3 437.483 177.932C437.483 178.484 437.419 178.972 437.291 179.396C437.171 179.812 436.995 180.176 436.763 180.488C436.531 180.8 436.243 181.064 435.899 181.28C435.555 181.496 435.167 181.676 434.735 181.82C435.775 182.148 436.551 182.648 437.063 183.32C437.575 183.992 437.831 184.836 437.831 185.852C437.831 186.716 437.671 187.48 437.351 188.144C437.031 188.808 436.599 189.368 436.055 189.824C435.511 190.272 434.879 190.612 434.159 190.844C433.447 191.076 432.691 191.192 431.891 191.192C431.019 191.192 430.259 191.092 429.611 190.892C428.963 190.692 428.399 190.396 427.919 190.004C427.439 189.612 427.031 189.132 426.695 188.564C426.359 187.996 426.071 187.34 425.831 186.596L427.139 186.056C427.483 185.912 427.803 185.876 428.099 185.948C428.403 186.012 428.623 186.172 428.759 186.428C428.903 186.708 429.059 186.984 429.227 187.256C429.403 187.528 429.611 187.772 429.851 187.988C430.091 188.196 430.371 188.368 430.691 188.504C431.019 188.632 431.407 188.696 431.855 188.696C432.359 188.696 432.799 188.616 433.175 188.456C433.551 188.288 433.863 188.072 434.111 187.808C434.367 187.544 434.555 187.252 434.675 186.932C434.803 186.604 434.867 186.276 434.867 185.948C434.867 185.532 434.823 185.156 434.735 184.82C434.647 184.476 434.463 184.184 434.183 183.944C433.903 183.704 433.499 183.516 432.971 183.38C432.451 183.244 431.751 183.176 430.871 183.176V181.064C431.599 181.056 432.203 180.988 432.683 180.86C433.163 180.732 433.543 180.556 433.823 180.332C434.111 180.1 434.311 179.824 434.423 179.504C434.535 179.184 434.591 178.832 434.591 178.448C434.591 177.632 434.363 177.012 433.907 176.588C433.451 176.164 432.843 175.952 432.083 175.952C431.731 175.952 431.407 176.004 431.111 176.108C430.815 176.204 430.547 176.344 430.307 176.528C430.075 176.704 429.879 176.912 429.719 177.152C429.559 177.392 429.439 177.656 429.359 177.944C429.223 178.312 429.043 178.556 428.819 178.676C428.603 178.796 428.295 178.824 427.895 178.76L426.335 178.484Z" fill="#A349A4"/>
<rect x="636.5" y="40.5" width="25" height="25" fill="#141414" stroke="#BBBBBB"/>
<rect x="662.5" y="40.5" width="25" height="25" fill="#141414" stroke="#BBBBBB"/>
<rect x="688.5" y="40.5" width="25" height="25" fill="#141414" stroke="#BBBBBB"/>
<rect x="714.5" y="40.5" width="25" height="25" fill="#141414" stroke="#BBBBBB"/>
<rect x="740.5" y="40.5" width="25" height="25" fill="#141414" stroke="#BBBBBB"/>
<rect x="636.5" y="66.5" width="25" height="25" fill="#141414" stroke="#BBBBBB"/>
<rect x="662.5" y="66.5" width="25" height="25" fill="#FF4136" stroke="#BBBBBB"/>
<rect x="688.5" y="66.5" width="25" height="25" fill="#FF4136" stroke="#BBBBBB"/>
<rect x="714.5" y="66.5" width="25" height="25" fill="#141414" stroke="#BBBBBB"/>
<rect x="740.5" y="66.5" width="25" height="25" fill="#FF4136" stroke="#BBBBBB"/>
<rect x="636.5" y="92.5" width="25" height="25" fill="#141414" stroke="#BBBBBB"/>
<rect x="662.5" y="92.5" width="25" height="25" fill="#FF4136" stroke="#BBBBBB"/>
<rect x="688.5" y="92.5" width="25" height="25" fill="#FF4136" stroke="#BBBBBB"/>
<rect x="714.5" y="92.5" width="25" height="25" fill="#141414" stroke="#BBBBBB"/>
<rect x="740.5" y="92.5" width="25" height="25" fill="#FF4136" stroke="#BBBBBB"/>
<rect x="636.5" y="118.5" width="25" height="25" fill="#141414" stroke="#BBBBBB"/>
<rect x="662.5" y="118.5" width="25" height="25" fill="#141414" stroke="#BBBBBB"/>
<rect x="688.5" y="118.5" width="25" height="25" fill="#141414" stroke="#BBBBBB"/>
<rect x="714.5" y="118.5" width="25" height="25" fill="#141414" stroke="#BBBBBB"/>
<path d="M740.5 118.5H765.5V143.5H740.5V118.5Z" fill="#141414" stroke="#BBBBBB"/>
<rect x="636.5" y="144.5" width="25" height="25" fill="#141414" stroke="#BBBBBB"/>
<rect x="662.5" y="144.5" width="25" height="25" fill="#141414" stroke="#BBBBBB"/>
<rect x="688.5" y="144.5" width="25" height="25" fill="#141414" stroke="#BBBBBB"/>
<rect x="714.5" y="144.5" width="25" height="25" fill="#141414" stroke="#BBBBBB"/>
<rect x="740.5" y="144.5" width="25" height="25" fill="#141414" stroke="#BBBBBB"/>
<path d="M644.583 28.46V22.784C644.583 22.248 644.619 21.656 644.691 21.008L639.303 28.46H644.583ZM649.347 28.46V30.176C649.347 30.336 649.295 30.476 649.191 30.596C649.087 30.708 648.939 30.764 648.747 30.764H647.163V35H644.583V30.764H637.263C637.063 30.764 636.887 30.704 636.735 30.584C636.583 30.456 636.487 30.3 636.447 30.116L636.135 28.616L644.355 17.636H647.163V28.46H649.347Z" fill="#A349A4"/>
<rect x="847.5" y="40.5" width="25" height="25" fill="#141414" stroke="#BBBBBB"/>
<rect x="873.5" y="40.5" width="25" height="25" fill="#FF4136" stroke="#BBBBBB"/>
<rect x="899.5" y="40.5" width="25" height="25" fill="#FF4136" stroke="#BBBBBB"/>
<rect x="925.5" y="40.5" width="25" height="25" fill="#141414" stroke="#BBBBBB"/>
<rect x="951.5" y="40.5" width="25" height="25" fill="#FF4136" stroke="#BBBBBB"/>
<rect x="847.5" y="66.5" width="25" height="25" fill="#141414" stroke="#BBBBBB"/>
<rect x="873.5" y="66.5" width="25" height="25" fill="#FF4136" stroke="#BBBBBB"/>
<rect x="899.5" y="66.5" width="25" height="25" fill="#FF4136" stroke="#BBBBBB"/>
<rect x="925.5" y="66.5" width="25" height="25" fill="#141414" stroke="#BBBBBB"/>
<rect x="951.5" y="66.5" width="25" height="25" fill="#FF4136" stroke="#BBBBBB"/>
<rect x="847.5" y="92.5" width="25" height="25" fill="#141414" stroke="#BBBBBB"/>
<rect x="873.5" y="92.5" width="25" height="25" fill="#FF4136" stroke="#BBBBBB"/>
<rect x="899.5" y="92.5" width="25" height="25" fill="#FF4136" stroke="#BBBBBB"/>
<rect x="925.5" y="92.5" width="25" height="25" fill="#141414" stroke="#BBBBBB"/>
<rect x="951.5" y="92.5" width="25" height="25" fill="#FF4136" stroke="#BBBBBB"/>
<rect x="847.5" y="118.5" width="25" height="25" fill="#141414" stroke="#BBBBBB"/>
<rect x="873.5" y="118.5" width="25" height="25" fill="#141414" stroke="#BBBBBB"/>
<rect x="899.5" y="118.5" width="25" height="25" fill="#141414" stroke="#BBBBBB"/>
<rect x="925.5" y="118.5" width="25" height="25" fill="#141414" stroke="#BBBBBB"/>
<path d="M951.5 118.5H976.5V143.5H951.5V118.5Z" fill="#141414" stroke="#BBBBBB"/>
<rect x="847.5" y="144.5" width="25" height="25" fill="#141414" stroke="#BBBBBB"/>
<rect x="873.5" y="144.5" width="25" height="25" fill="#141414" stroke="#BBBBBB"/>
<rect x="899.5" y="144.5" width="25" height="25" fill="#141414" stroke="#BBBBBB"/>
<rect x="925.5" y="144.5" width="25" height="25" fill="#141414" stroke="#BBBBBB"/>
<rect x="951.5" y="144.5" width="25" height="25" fill="#141414" stroke="#BBBBBB"/>
<path d="M853.303 23.948L852.703 24.692C853.039 24.524 853.399 24.396 853.783 24.308C854.175 24.212 854.595 24.164 855.043 24.164C855.699 24.164 856.335 24.272 856.951 24.488C857.575 24.704 858.123 25.032 858.595 25.472C859.067 25.904 859.447 26.444 859.735 27.092C860.023 27.74 860.167 28.496 860.167 29.36C860.167 30.168 860.019 30.928 859.723 31.64C859.427 32.344 859.011 32.96 858.475 33.488C857.939 34.016 857.291 34.432 856.531 34.736C855.779 35.04 854.947 35.192 854.035 35.192C853.107 35.192 852.275 35.044 851.539 34.748C850.803 34.452 850.175 34.04 849.655 33.512C849.135 32.976 848.735 32.336 848.455 31.592C848.183 30.84 848.047 30.008 848.047 29.096C848.047 28.28 848.211 27.444 848.539 26.588C848.875 25.724 849.391 24.828 850.087 23.9L854.227 18.344C854.371 18.152 854.579 17.988 854.851 17.852C855.131 17.716 855.451 17.648 855.811 17.648H858.451L853.303 23.948ZM853.975 32.768C854.447 32.768 854.879 32.688 855.271 32.528C855.671 32.368 856.011 32.144 856.291 31.856C856.579 31.568 856.803 31.232 856.963 30.848C857.123 30.456 857.203 30.032 857.203 29.576C857.203 29.08 857.127 28.636 856.975 28.244C856.823 27.844 856.607 27.508 856.327 27.236C856.047 26.956 855.711 26.744 855.319 26.6C854.927 26.456 854.495 26.384 854.023 26.384C853.551 26.384 853.123 26.464 852.739 26.624C852.355 26.784 852.027 27.008 851.755 27.296C851.483 27.576 851.271 27.912 851.119 28.304C850.967 28.688 850.891 29.104 850.891 29.552C850.891 30.032 850.955 30.472 851.083 30.872C851.219 31.264 851.415 31.6 851.671 31.88C851.935 32.16 852.259 32.38 852.643 32.54C853.027 32.692 853.471 32.768 853.975 32.768Z" fill="#A349A4"/>
<rect x="847.5" y="196.5" width="25" height="25" fill="#141414" stroke="#BBBBBB"/>
<rect x="873.5" y="196.5" width="25" height="25" fill="#141414" stroke="#BBBBBB"/>
<rect x="899.5" y="196.5" width="25" height="25" fill="#141414" stroke="#BBBBBB"/>
<rect x="925.5" y="196.5" width="25" height="25" fill="#141414" stroke="#BBBBBB"/>
<rect x="951.5" y="196.5" width="25" height="25" fill="#141414" stroke="#BBBBBB"/>
<rect x="847.5" y="222.5" width="25" height="25" fill="#141414" stroke="#BBBBBB"/>
<rect x="873.5" y="222.5" width="25" height="25" fill="#FF4136" stroke="#BBBBBB"/>
<rect x="899.5" y="222.5" width="25" height="25" fill="#FF4136" stroke="#BBBBBB"/>
<rect x="925.5" y="222.5" width="25" height="25" fill="#141414" stroke="#BBBBBB"/>
<rect x="951.5" y="222.5" width="25" height="25" fill="#FF4136" stroke="#BBBBBB"/>
<rect x="847.5" y="248.5" width="25" height="25" fill="#141414" stroke="#BBBBBB"/>
<rect x="873.5" y="248.5" width="25" height="25" fill="#FF4136" stroke="#BBBBBB"/>
<rect x="899.5" y="248.5" width="25" height="25" fill="#FF4136" stroke="#BBBBBB"/>
<rect x="925.5" y="248.5" width="25" height="25" fill="#141414" stroke="#BBBBBB"/>
<rect x="951.5" y="248.5" width="25" height="25" fill="#FF4136" stroke="#BBBBBB"/>
<rect x="847.5" y="274.5" width="25" height="25" fill="#141414" stroke="#BBBBBB"/>
<rect x="873.5" y="274.5" width="25" height="25" fill="#FF4136" stroke="#BBBBBB"/>
<rect x="899.5" y="274.5" width="25" height="25" fill="#FF4136" stroke="#BBBBBB"/>
<rect x="925.5" y="274.5" width="25" height="25" fill="#141414" stroke="#BBBBBB"/>
<path d="M951.5 274.5H976.5V299.5H951.5V274.5Z" fill="#FF4136" stroke="#BBBBBB"/>
<rect x="847.5" y="300.5" width="25" height="25" fill="#141414" stroke="#BBBBBB"/>
<rect x="873.5" y="300.5" width="25" height="25" fill="#FF4136" stroke="#BBBBBB"/>
<rect x="899.5" y="300.5" width="25" height="25" fill="#FF4136" stroke="#BBBBBB"/>
<rect x="925.5" y="300.5" width="25" height="25" fill="#141414" stroke="#BBBBBB"/>
<rect x="951.5" y="300.5" width="25" height="25" fill="#FF4136" stroke="#BBBBBB"/>
<path d="M860.143 173.648V174.932C860.143 175.316 860.103 175.628 860.023 175.868C859.943 176.1 859.863 176.296 859.783 176.456L853.207 189.992C853.071 190.272 852.879 190.512 852.631 190.712C852.383 190.904 852.051 191 851.635 191H849.487L856.195 177.74C856.347 177.468 856.495 177.22 856.639 176.996C856.791 176.764 856.959 176.544 857.143 176.336H848.839C848.655 176.336 848.495 176.268 848.359 176.132C848.223 175.996 848.155 175.836 848.155 175.652V173.648H860.143Z" fill="#A349A4"/>
<rect x="636.5" y="196.5" width="25" height="25" fill="#141414" stroke="#BBBBBB"/>
<rect x="662.5" y="196.5" width="25" height="25" fill="#141414" stroke="#BBBBBB"/>
<rect x="688.5" y="196.5" width="25" height="25" fill="#141414" stroke="#BBBBBB"/>
<rect x="714.5" y="196.5" width="25" height="25" fill="#141414" stroke="#BBBBBB"/>
<rect x="740.5" y="196.5" width="25" height="25" fill="#141414" stroke="#BBBBBB"/>
<rect x="636.5" y="222.5" width="25" height="25" fill="#141414" stroke="#BBBBBB"/>
<rect x="662.5" y="222.5" width="25" height="25" fill="#141414" stroke="#BBBBBB"/>
<rect x="688.5" y="222.5" width="25" height="25" fill="#141414" stroke="#BBBBBB"/>
<rect x="714.5" y="222.5" width="25" height="25" fill="#141414" stroke="#BBBBBB"/>
<rect x="740.5" y="222.5" width="25" height="25" fill="#141414" stroke="#BBBBBB"/>
<rect x="636.5" y="248.5" width="25" height="25" fill="#141414" stroke="#BBBBBB"/>
<rect x="662.5" y="248.5" width="25" height="25" fill="#FF4136" stroke="#BBBBBB"/>
<rect x="688.5" y="248.5" width="25" height="25" fill="#FF4136" stroke="#BBBBBB"/>
<rect x="714.5" y="248.5" width="25" height="25" fill="#141414" stroke="#BBBBBB"/>
<rect x="740.5" y="248.5" width="25" height="25" fill="#FF4136" stroke="#BBBBBB"/>
<rect x="636.5" y="274.5" width="25" height="25" fill="#141414" stroke="#BBBBBB"/>
<rect x="662.5" y="274.5" width="25" height="25" fill="#FF4136" stroke="#BBBBBB"/>
<rect x="688.5" y="274.5" width="25" height="25" fill="#FF4136" stroke="#BBBBBB"/>
<rect x="714.5" y="274.5" width="25" height="25" fill="#141414" stroke="#BBBBBB"/>
<path d="M740.5 274.5H765.5V299.5H740.5V274.5Z" fill="#FF4136" stroke="#BBBBBB"/>
<rect x="636.5" y="300.5" width="25" height="25" fill="#141414" stroke="#BBBBBB"/>
<rect x="662.5" y="300.5" width="25" height="25" fill="#FF4136" stroke="#BBBBBB"/>
<rect x="688.5" y="300.5" width="25" height="25" fill="#FF4136" stroke="#BBBBBB"/>
<rect x="714.5" y="300.5" width="25" height="25" fill="#141414" stroke="#BBBBBB"/>
<rect x="740.5" y="300.5" width="25" height="25" fill="#FF4136" stroke="#BBBBBB"/>
<path d="M640.911 181.948C641.295 181.868 641.663 181.812 642.015 181.78C642.367 181.74 642.707 181.72 643.035 181.72C643.947 181.72 644.751 181.856 645.447 182.128C646.143 182.4 646.727 182.776 647.199 183.256C647.671 183.736 648.027 184.3 648.267 184.948C648.507 185.588 648.627 186.28 648.627 187.024C648.627 187.944 648.463 188.784 648.135 189.544C647.815 190.304 647.367 190.956 646.791 191.5C646.215 192.036 645.531 192.452 644.739 192.748C643.955 193.044 643.099 193.192 642.171 193.192C641.627 193.192 641.111 193.136 640.623 193.024C640.135 192.912 639.675 192.764 639.243 192.58C638.819 192.388 638.423 192.172 638.055 191.932C637.695 191.684 637.371 191.424 637.083 191.152L637.995 189.892C638.187 189.62 638.439 189.484 638.751 189.484C638.951 189.484 639.155 189.548 639.363 189.676C639.571 189.804 639.807 189.944 640.071 190.096C640.343 190.248 640.659 190.388 641.019 190.516C641.387 190.644 641.827 190.708 642.339 190.708C642.883 190.708 643.363 190.62 643.779 190.444C644.195 190.268 644.539 190.024 644.811 189.712C645.091 189.392 645.299 189.016 645.435 188.584C645.579 188.144 645.651 187.668 645.651 187.156C645.651 186.212 645.375 185.476 644.823 184.948C644.279 184.412 643.471 184.144 642.399 184.144C641.575 184.144 640.731 184.296 639.867 184.6L638.019 184.072L639.459 175.648H648.027V176.908C648.027 177.332 647.895 177.676 647.631 177.94C647.367 178.204 646.919 178.336 646.287 178.336H641.523L640.911 181.948Z" fill="#A349A4"/>
<line x1="489" y1="40" x2="489" y2="3" stroke="#141414" stroke-width="2"/>
<path d="M911.5 40.0432L917.274 30.0432H905.726L911.5 40.0432ZM912.5 31.0432V2.99334H910.5V31.0432H912.5Z" fill="#141414"/>
<path d="M488 3H912" stroke="#141414" stroke-width="2"/>
<path d="M425.003 276L415.003 270.226V281.774L425.003 276ZM67.9972 277H416.003V275H67.9972V277Z" fill="#141414"/>
<path d="M701 327L695.226 337L706.774 337L701 327ZM702 355L702 336L700 336L700 355L702 355Z" fill="#141414"/>
<line x1="67" y1="355" x2="67" y2="249" stroke="#141414" stroke-width="2"/>
<path d="M67.9984 354H701.002" stroke="#141414" stroke-width="2"/>
</svg>
