<svg width="982" height="633" viewBox="0 0 982 633" fill="none" xmlns="http://www.w3.org/2000/svg">
<rect width="982" height="633" fill="white"/>
<rect x="4" y="270" width="128" height="128" fill="#141414" stroke="#141414" stroke-width="2"/>
<path d="M34.9585 327.072C34.8305 327.296 34.6918 327.461 34.5425 327.568C34.4038 327.664 34.2278 327.712 34.0145 327.712C33.7905 327.712 33.5452 327.632 33.2785 327.472C33.0225 327.301 32.7132 327.115 32.3505 326.912C31.9878 326.709 31.5612 326.528 31.0705 326.368C30.5905 326.197 30.0198 326.112 29.3585 326.112C28.7612 326.112 28.2385 326.187 27.7905 326.336C27.3425 326.475 26.9638 326.672 26.6545 326.928C26.3558 327.184 26.1318 327.493 25.9825 327.856C25.8332 328.208 25.7585 328.597 25.7585 329.024C25.7585 329.568 25.9078 330.021 26.2065 330.384C26.5158 330.747 26.9212 331.056 27.4225 331.312C27.9238 331.568 28.4945 331.797 29.1345 332C29.7745 332.203 30.4305 332.421 31.1025 332.656C31.7745 332.88 32.4305 333.147 33.0705 333.456C33.7105 333.755 34.2812 334.139 34.7825 334.608C35.2838 335.067 35.6838 335.632 35.9825 336.304C36.2918 336.976 36.4465 337.792 36.4465 338.752C36.4465 339.797 36.2652 340.779 35.9025 341.696C35.5505 342.603 35.0278 343.397 34.3345 344.08C33.6518 344.752 32.8145 345.285 31.8225 345.68C30.8305 346.064 29.6945 346.256 28.4145 346.256C27.6785 346.256 26.9532 346.181 26.2385 346.032C25.5238 345.893 24.8358 345.691 24.1745 345.424C23.5238 345.157 22.9105 344.837 22.3345 344.464C21.7585 344.091 21.2465 343.675 20.7985 343.216L22.0625 341.152C22.1692 341.003 22.3078 340.88 22.4785 340.784C22.6492 340.677 22.8305 340.624 23.0225 340.624C23.2892 340.624 23.5772 340.736 23.8865 340.96C24.1958 341.173 24.5638 341.413 24.9905 341.68C25.4172 341.947 25.9132 342.192 26.4785 342.416C27.0545 342.629 27.7425 342.736 28.5425 342.736C29.7692 342.736 30.7185 342.448 31.3905 341.872C32.0625 341.285 32.3985 340.448 32.3985 339.36C32.3985 338.752 32.2438 338.256 31.9345 337.872C31.6358 337.488 31.2358 337.168 30.7345 336.912C30.2332 336.645 29.6625 336.421 29.0225 336.24C28.3825 336.059 27.7318 335.861 27.0705 335.648C26.4092 335.435 25.7585 335.179 25.1185 334.88C24.4785 334.581 23.9078 334.192 23.4065 333.712C22.9052 333.232 22.4998 332.635 22.1905 331.92C21.8918 331.195 21.7425 330.304 21.7425 329.248C21.7425 328.405 21.9078 327.584 22.2385 326.784C22.5798 325.984 23.0705 325.275 23.7105 324.656C24.3505 324.037 25.1398 323.541 26.0785 323.168C27.0172 322.795 28.0945 322.608 29.3105 322.608C30.6758 322.608 31.9345 322.821 33.0865 323.248C34.2385 323.675 35.2198 324.272 36.0305 325.04L34.9585 327.072ZM56.361 326.4H49.385V346H45.081V326.4H38.105V322.864H56.361V326.4ZM69.3625 337.264L66.5465 329.568C66.4078 329.227 66.2638 328.821 66.1145 328.352C65.9652 327.883 65.8158 327.376 65.6665 326.832C65.5278 327.376 65.3838 327.888 65.2345 328.368C65.0852 328.837 64.9412 329.248 64.8025 329.6L62.0025 337.264H69.3625ZM76.9625 346H73.6345C73.2612 346 72.9572 345.909 72.7225 345.728C72.4878 345.536 72.3118 345.301 72.1945 345.024L70.4665 340.304H60.8825L59.1545 345.024C59.0692 345.269 58.9038 345.493 58.6585 345.696C58.4132 345.899 58.1092 346 57.7465 346H54.3865L63.4905 322.864H67.8745L76.9625 346ZM86.3493 333.872C87.1599 333.872 87.8639 333.771 88.4613 333.568C89.0693 333.365 89.5653 333.088 89.9493 332.736C90.3439 332.373 90.6373 331.947 90.8293 331.456C91.0213 330.965 91.1173 330.427 91.1173 329.84C91.1173 328.667 90.7279 327.765 89.9493 327.136C89.1813 326.507 88.0026 326.192 86.4133 326.192H83.6613V333.872H86.3493ZM97.4213 346H93.5333C92.7973 346 92.2639 345.712 91.9333 345.136L87.0693 337.728C86.8879 337.451 86.6853 337.253 86.4613 337.136C86.2479 337.019 85.9279 336.96 85.5013 336.96H83.6613V346H79.3573V322.864H86.4133C87.9813 322.864 89.3253 323.029 90.4453 323.36C91.5759 323.68 92.4986 324.133 93.2133 324.72C93.9386 325.307 94.4719 326.011 94.8133 326.832C95.1546 327.643 95.3253 328.539 95.3253 329.52C95.3253 330.299 95.2079 331.035 94.9733 331.728C94.7493 332.421 94.4186 333.051 93.9813 333.616C93.5546 334.181 93.0213 334.677 92.3813 335.104C91.7519 335.531 91.0319 335.867 90.2213 336.112C90.4986 336.272 90.7546 336.464 90.9893 336.688C91.2239 336.901 91.4373 337.157 91.6293 337.456L97.4213 346ZM115.486 326.4H108.51V346H104.206V326.4H97.23V322.864H115.486V326.4Z" fill="white"/>
<path d="M16.3591 255.324C16.3591 256.836 16.1951 258.152 15.8671 259.272C15.5471 260.384 15.0991 261.304 14.5231 262.032C13.9551 262.76 13.2791 263.304 12.4951 263.664C11.7191 264.016 10.8791 264.192 9.97506 264.192C9.07106 264.192 8.23106 264.016 7.45506 263.664C6.68706 263.304 6.01906 262.76 5.45106 262.032C4.88306 261.304 4.43906 260.384 4.11906 259.272C3.79906 258.152 3.63906 256.836 3.63906 255.324C3.63906 253.804 3.79906 252.488 4.11906 251.376C4.43906 250.264 4.88306 249.344 5.45106 248.616C6.01906 247.888 6.68706 247.348 7.45506 246.996C8.23106 246.636 9.07106 246.456 9.97506 246.456C10.8791 246.456 11.7191 246.636 12.4951 246.996C13.2791 247.348 13.9551 247.888 14.5231 248.616C15.0991 249.344 15.5471 250.264 15.8671 251.376C16.1951 252.488 16.3591 253.804 16.3591 255.324ZM13.2991 255.324C13.2991 254.068 13.2071 253.028 13.0231 252.204C12.8391 251.38 12.5911 250.724 12.2791 250.236C11.9751 249.748 11.6231 249.408 11.2231 249.216C10.8231 249.016 10.4071 248.916 9.97506 248.916C9.55106 248.916 9.13906 249.016 8.73906 249.216C8.34706 249.408 7.99906 249.748 7.69506 250.236C7.39106 250.724 7.14706 251.38 6.96306 252.204C6.78706 253.028 6.69906 254.068 6.69906 255.324C6.69906 256.58 6.78706 257.62 6.96306 258.444C7.14706 259.268 7.39106 259.924 7.69506 260.412C7.99906 260.9 8.34706 261.244 8.73906 261.444C9.13906 261.636 9.55106 261.732 9.97506 261.732C10.4071 261.732 10.8231 261.636 11.2231 261.444C11.6231 261.244 11.9751 260.9 12.2791 260.412C12.5911 259.924 12.8391 259.268 13.0231 258.444C13.2071 257.62 13.2991 256.58 13.2991 255.324Z" fill="#A349A4"/>
<path d="M215 334L205 328.226V339.774L215 334ZM134 335H206V333H134V335Z" fill="#141414"/>
<rect x="214.5" y="269.5" width="25" height="25" fill="#AAAAAA" stroke="#BBBBBB"/>
<rect x="240.5" y="269.5" width="25" height="25" fill="#141414" stroke="#BBBBBB"/>
<rect x="266.5" y="269.5" width="25" height="25" fill="#141414" stroke="#BBBBBB"/>
<rect x="292.5" y="269.5" width="25" height="25" fill="#141414" stroke="#BBBBBB"/>
<rect x="318.5" y="269.5" width="25" height="25" fill="#141414" stroke="#BBBBBB"/>
<rect x="214.5" y="295.5" width="25" height="25" fill="#FFDC00" stroke="#BBBBBB"/>
<rect x="240.5" y="295.5" width="25" height="25" fill="#AAAAAA" stroke="#BBBBBB"/>
<rect x="266.5" y="295.5" width="25" height="25" fill="#141414" stroke="#BBBBBB"/>
<rect x="292.5" y="295.5" width="25" height="25" fill="#141414" stroke="#BBBBBB"/>
<rect x="318.5" y="295.5" width="25" height="25" fill="#141414" stroke="#BBBBBB"/>
<rect x="214.5" y="321.5" width="25" height="25" fill="#870C25" stroke="#BBBBBB"/>
<rect x="240.5" y="321.5" width="25" height="25" fill="#2ECC40" stroke="#BBBBBB"/>
<rect x="266.5" y="321.5" width="25" height="25" fill="#AAAAAA" stroke="#BBBBBB"/>
<rect x="292.5" y="321.5" width="25" height="25" fill="#141414" stroke="#BBBBBB"/>
<rect x="318.5" y="321.5" width="25" height="25" fill="#141414" stroke="#BBBBBB"/>
<rect x="214.5" y="347.5" width="25" height="25" fill="#FF4136" stroke="#BBBBBB"/>
<rect x="240.5" y="347.5" width="25" height="25" fill="#7FDBFF" stroke="#BBBBBB"/>
<rect x="266.5" y="347.5" width="25" height="25" fill="#0074D9" stroke="#BBBBBB"/>
<rect x="292.5" y="347.5" width="25" height="25" fill="#AAAAAA" stroke="#BBBBBB"/>
<path d="M318.5 347.5H343.5V372.5H318.5V347.5Z" fill="#141414" stroke="#BBBBBB"/>
<rect x="214.5" y="373.5" width="25" height="25" fill="#FF4136" stroke="#BBBBBB"/>
<rect x="240.5" y="373.5" width="25" height="25" fill="#0074D9" stroke="#BBBBBB"/>
<rect x="266.5" y="373.5" width="25" height="25" fill="#F012BE" stroke="#BBBBBB"/>
<rect x="292.5" y="373.5" width="25" height="25" fill="#FF851B" stroke="#BBBBBB"/>
<rect x="318.5" y="373.5" width="25" height="25" fill="#AAAAAA" stroke="#BBBBBB"/>
<path d="M226.459 261.78V264H216.859V261.78H220.375V251.664C220.375 251.264 220.387 250.852 220.411 250.428L217.915 252.516C217.771 252.628 217.627 252.7 217.483 252.732C217.347 252.756 217.215 252.756 217.087 252.732C216.967 252.708 216.859 252.668 216.763 252.612C216.667 252.548 216.595 252.48 216.547 252.408L215.611 251.124L220.903 246.624H223.339V261.78H226.459Z" fill="#A349A4"/>
<rect x="0.5" y="0.5" width="25" height="25" transform="matrix(0 1 1 0 638 269)" fill="#AAAAAA" stroke="#BBBBBB"/>
<rect x="0.5" y="0.5" width="25" height="25" transform="matrix(0 1 1 0 638 295)" fill="#141414" stroke="#BBBBBB"/>
<rect x="0.5" y="0.5" width="25" height="25" transform="matrix(0 1 1 0 638 321)" fill="#141414" stroke="#BBBBBB"/>
<rect x="0.5" y="0.5" width="25" height="25" transform="matrix(0 1 1 0 638 347)" fill="#141414" stroke="#BBBBBB"/>
<rect x="0.5" y="0.5" width="25" height="25" transform="matrix(0 1 1 0 638 373)" fill="#141414" stroke="#BBBBBB"/>
<rect x="0.5" y="0.5" width="25" height="25" transform="matrix(0 1 1 0 664 269)" fill="#FFDC00" stroke="#BBBBBB"/>
<rect x="0.5" y="0.5" width="25" height="25" transform="matrix(0 1 1 0 664 295)" fill="#AAAAAA" stroke="#BBBBBB"/>
<rect x="0.5" y="0.5" width="25" height="25" transform="matrix(0 1 1 0 664 321)" fill="#141414" stroke="#BBBBBB"/>
<rect x="0.5" y="0.5" width="25" height="25" transform="matrix(0 1 1 0 664 347)" fill="#141414" stroke="#BBBBBB"/>
<rect x="0.5" y="0.5" width="25" height="25" transform="matrix(0 1 1 0 664 373)" fill="#141414" stroke="#BBBBBB"/>
<rect x="0.5" y="0.5" width="25" height="25" transform="matrix(0 1 1 0 690 269)" fill="#870C25" stroke="#BBBBBB"/>
<rect x="0.5" y="0.5" width="25" height="25" transform="matrix(0 1 1 0 690 295)" fill="#2ECC40" stroke="#BBBBBB"/>
<rect x="0.5" y="0.5" width="25" height="25" transform="matrix(0 1 1 0 690 321)" fill="#AAAAAA" stroke="#BBBBBB"/>
<rect x="0.5" y="0.5" width="25" height="25" transform="matrix(0 1 1 0 690 347)" fill="#141414" stroke="#BBBBBB"/>
<rect x="0.5" y="0.5" width="25" height="25" transform="matrix(0 1 1 0 690 373)" fill="#141414" stroke="#BBBBBB"/>
<rect x="0.5" y="0.5" width="25" height="25" transform="matrix(0 1 1 0 716 269)" fill="#FF4136" stroke="#BBBBBB"/>
<rect x="0.5" y="0.5" width="25" height="25" transform="matrix(0 1 1 0 716 295)" fill="#7FDBFF" stroke="#BBBBBB"/>
<rect x="0.5" y="0.5" width="25" height="25" transform="matrix(0 1 1 0 716 321)" fill="#0074D9" stroke="#BBBBBB"/>
<rect x="0.5" y="0.5" width="25" height="25" transform="matrix(0 1 1 0 716 347)" fill="#AAAAAA" stroke="#BBBBBB"/>
<path d="M716.5 373.5V398.5H741.5V373.5H716.5Z" fill="#141414" stroke="#BBBBBB"/>
<rect x="0.5" y="0.5" width="25" height="25" transform="matrix(0 1 1 0 742 269)" fill="#FF4136" stroke="#BBBBBB"/>
<rect x="0.5" y="0.5" width="25" height="25" transform="matrix(0 1 1 0 742 295)" fill="#0074D9" stroke="#BBBBBB"/>
<rect x="0.5" y="0.5" width="25" height="25" transform="matrix(0 1 1 0 742 321)" fill="#F012BE" stroke="#BBBBBB"/>
<rect x="0.5" y="0.5" width="25" height="25" transform="matrix(0 1 1 0 742 347)" fill="#FF851B" stroke="#BBBBBB"/>
<rect x="0.5" y="0.5" width="25" height="25" transform="matrix(0 1 1 0 742 373)" fill="#AAAAAA" stroke="#BBBBBB"/>
<path d="M644.303 252.948L643.703 253.692C644.039 253.524 644.399 253.396 644.783 253.308C645.175 253.212 645.595 253.164 646.043 253.164C646.699 253.164 647.335 253.272 647.951 253.488C648.575 253.704 649.123 254.032 649.595 254.472C650.067 254.904 650.447 255.444 650.735 256.092C651.023 256.74 651.167 257.496 651.167 258.36C651.167 259.168 651.019 259.928 650.723 260.64C650.427 261.344 650.011 261.96 649.475 262.488C648.939 263.016 648.291 263.432 647.531 263.736C646.779 264.04 645.947 264.192 645.035 264.192C644.107 264.192 643.275 264.044 642.539 263.748C641.803 263.452 641.175 263.04 640.655 262.512C640.135 261.976 639.735 261.336 639.455 260.592C639.183 259.84 639.047 259.008 639.047 258.096C639.047 257.28 639.211 256.444 639.539 255.588C639.875 254.724 640.391 253.828 641.087 252.9L645.227 247.344C645.371 247.152 645.579 246.988 645.851 246.852C646.131 246.716 646.451 246.648 646.811 246.648H649.451L644.303 252.948ZM644.975 261.768C645.447 261.768 645.879 261.688 646.271 261.528C646.671 261.368 647.011 261.144 647.291 260.856C647.579 260.568 647.803 260.232 647.963 259.848C648.123 259.456 648.203 259.032 648.203 258.576C648.203 258.08 648.127 257.636 647.975 257.244C647.823 256.844 647.607 256.508 647.327 256.236C647.047 255.956 646.711 255.744 646.319 255.6C645.927 255.456 645.495 255.384 645.023 255.384C644.551 255.384 644.123 255.464 643.739 255.624C643.355 255.784 643.027 256.008 642.755 256.296C642.483 256.576 642.271 256.912 642.119 257.304C641.967 257.688 641.891 258.104 641.891 258.552C641.891 259.032 641.955 259.472 642.083 259.872C642.219 260.264 642.415 260.6 642.671 260.88C642.935 261.16 643.259 261.38 643.643 261.54C644.027 261.692 644.471 261.768 644.975 261.768Z" fill="#A349A4"/>
<rect x="850" y="270" width="128" height="128" fill="#141414" stroke="#141414" stroke-width="2"/>
<path d="M887.193 326.288V332.704H895.289V336.016H887.193V342.56H897.465V346H882.873V322.864H897.465V326.288H887.193ZM920.783 322.864V346H918.575C918.234 346 917.946 345.947 917.711 345.84C917.487 345.723 917.268 345.531 917.055 345.264L904.975 329.84C905.039 330.544 905.071 331.195 905.071 331.792V346H901.279V322.864H903.535C903.716 322.864 903.871 322.875 903.999 322.896C904.138 322.907 904.255 322.939 904.351 322.992C904.458 323.035 904.559 323.104 904.655 323.2C904.751 323.285 904.858 323.403 904.975 323.552L917.103 339.04C917.071 338.667 917.044 338.299 917.023 337.936C917.002 337.573 916.991 337.237 916.991 336.928V322.864H920.783ZM946.479 334.432C946.479 336.128 946.197 337.685 945.631 339.104C945.066 340.523 944.271 341.744 943.247 342.768C942.223 343.792 940.991 344.587 939.551 345.152C938.111 345.717 936.511 346 934.751 346H925.935V322.864H934.751C936.511 322.864 938.111 323.152 939.551 323.728C940.991 324.293 942.223 325.088 943.247 326.112C944.271 327.125 945.066 328.341 945.631 329.76C946.197 331.179 946.479 332.736 946.479 334.432ZM942.063 334.432C942.063 333.163 941.893 332.027 941.551 331.024C941.221 330.011 940.735 329.157 940.095 328.464C939.466 327.76 938.698 327.221 937.791 326.848C936.895 326.475 935.882 326.288 934.751 326.288H930.255V342.576H934.751C935.882 342.576 936.895 342.389 937.791 342.016C938.698 341.643 939.466 341.109 940.095 340.416C940.735 339.712 941.221 338.859 941.551 337.856C941.893 336.843 942.063 335.701 942.063 334.432Z" fill="white"/>
<path d="M862.143 246.648V247.932C862.143 248.316 862.103 248.628 862.023 248.868C861.943 249.1 861.863 249.296 861.783 249.456L855.207 262.992C855.071 263.272 854.879 263.512 854.631 263.712C854.383 263.904 854.051 264 853.635 264H851.487L858.195 250.74C858.347 250.468 858.495 250.22 858.639 249.996C858.791 249.764 858.959 249.544 859.143 249.336H850.839C850.655 249.336 850.495 249.268 850.359 249.132C850.223 248.996 850.155 248.836 850.155 248.652V246.648H862.143Z" fill="#A349A4"/>
<rect x="0.5" y="-0.5" width="25" height="25" transform="matrix(1 0 0 -1 427 320)" fill="#AAAAAA" stroke="#BBBBBB"/>
<rect x="0.5" y="-0.5" width="25" height="25" transform="matrix(1 0 0 -1 453 320)" fill="#141414" stroke="#BBBBBB"/>
<rect x="0.5" y="-0.5" width="25" height="25" transform="matrix(1 0 0 -1 479 320)" fill="#141414" stroke="#BBBBBB"/>
<rect x="0.5" y="-0.5" width="25" height="25" transform="matrix(1 0 0 -1 505 320)" fill="#141414" stroke="#BBBBBB"/>
<rect x="0.5" y="-0.5" width="25" height="25" transform="matrix(1 0 0 -1 531 320)" fill="#141414" stroke="#BBBBBB"/>
<rect x="0.5" y="-0.5" width="25" height="25" transform="matrix(1 0 0 -1 427 294)" fill="#FFDC00" stroke="#BBBBBB"/>
<rect x="0.5" y="-0.5" width="25" height="25" transform="matrix(1 0 0 -1 453 294)" fill="#AAAAAA" stroke="#BBBBBB"/>
<rect x="0.5" y="-0.5" width="25" height="25" transform="matrix(1 0 0 -1 479 294)" fill="#141414" stroke="#BBBBBB"/>
<rect x="0.5" y="-0.5" width="25" height="25" transform="matrix(1 0 0 -1 505 294)" fill="#141414" stroke="#BBBBBB"/>
<rect x="0.5" y="-0.5" width="25" height="25" transform="matrix(1 0 0 -1 531 294)" fill="#141414" stroke="#BBBBBB"/>
<rect x="0.5" y="-0.5" width="25" height="25" transform="matrix(1 0 0 -1 427 268)" fill="#870C25" stroke="#BBBBBB"/>
<rect x="0.5" y="-0.5" width="25" height="25" transform="matrix(1 0 0 -1 453 268)" fill="#2ECC40" stroke="#BBBBBB"/>
<rect x="0.5" y="-0.5" width="25" height="25" transform="matrix(1 0 0 -1 479 268)" fill="#AAAAAA" stroke="#BBBBBB"/>
<rect x="0.5" y="-0.5" width="25" height="25" transform="matrix(1 0 0 -1 505 268)" fill="#141414" stroke="#BBBBBB"/>
<rect x="0.5" y="-0.5" width="25" height="25" transform="matrix(1 0 0 -1 531 268)" fill="#141414" stroke="#BBBBBB"/>
<rect x="0.5" y="-0.5" width="25" height="25" transform="matrix(1 0 0 -1 427 242)" fill="#FF4136" stroke="#BBBBBB"/>
<rect x="0.5" y="-0.5" width="25" height="25" transform="matrix(1 0 0 -1 453 242)" fill="#7FDBFF" stroke="#BBBBBB"/>
<rect x="0.5" y="-0.5" width="25" height="25" transform="matrix(1 0 0 -1 479 242)" fill="#0074D9" stroke="#BBBBBB"/>
<rect x="0.5" y="-0.5" width="25" height="25" transform="matrix(1 0 0 -1 505 242)" fill="#AAAAAA" stroke="#BBBBBB"/>
<path d="M531.5 242.5H556.5V217.5H531.5V242.5Z" fill="#141414" stroke="#BBBBBB"/>
<rect x="0.5" y="-0.5" width="25" height="25" transform="matrix(1 0 0 -1 427 216)" fill="#FF4136" stroke="#BBBBBB"/>
<rect x="0.5" y="-0.5" width="25" height="25" transform="matrix(1 0 0 -1 453 216)" fill="#0074D9" stroke="#BBBBBB"/>
<rect x="0.5" y="-0.5" width="25" height="25" transform="matrix(1 0 0 -1 479 216)" fill="#F012BE" stroke="#BBBBBB"/>
<rect x="0.5" y="-0.5" width="25" height="25" transform="matrix(1 0 0 -1 505 216)" fill="#FF851B" stroke="#BBBBBB"/>
<rect x="0.5" y="-0.5" width="25" height="25" transform="matrix(1 0 0 -1 531 216)" fill="#AAAAAA" stroke="#BBBBBB"/>
<path d="M427.335 173.484C427.455 172.652 427.687 171.924 428.031 171.3C428.375 170.668 428.803 170.144 429.315 169.728C429.835 169.304 430.427 168.988 431.091 168.78C431.763 168.564 432.483 168.456 433.251 168.456C434.051 168.456 434.771 168.572 435.411 168.804C436.059 169.028 436.611 169.344 437.067 169.752C437.523 170.152 437.871 170.624 438.111 171.168C438.359 171.712 438.483 172.3 438.483 172.932C438.483 173.484 438.419 173.972 438.291 174.396C438.171 174.812 437.995 175.176 437.763 175.488C437.531 175.8 437.243 176.064 436.899 176.28C436.555 176.496 436.167 176.676 435.735 176.82C436.775 177.148 437.551 177.648 438.063 178.32C438.575 178.992 438.831 179.836 438.831 180.852C438.831 181.716 438.671 182.48 438.351 183.144C438.031 183.808 437.599 184.368 437.055 184.824C436.511 185.272 435.879 185.612 435.159 185.844C434.447 186.076 433.691 186.192 432.891 186.192C432.019 186.192 431.259 186.092 430.611 185.892C429.963 185.692 429.399 185.396 428.919 185.004C428.439 184.612 428.031 184.132 427.695 183.564C427.359 182.996 427.071 182.34 426.831 181.596L428.139 181.056C428.483 180.912 428.803 180.876 429.099 180.948C429.403 181.012 429.623 181.172 429.759 181.428C429.903 181.708 430.059 181.984 430.227 182.256C430.403 182.528 430.611 182.772 430.851 182.988C431.091 183.196 431.371 183.368 431.691 183.504C432.019 183.632 432.407 183.696 432.855 183.696C433.359 183.696 433.799 183.616 434.175 183.456C434.551 183.288 434.863 183.072 435.111 182.808C435.367 182.544 435.555 182.252 435.675 181.932C435.803 181.604 435.867 181.276 435.867 180.948C435.867 180.532 435.823 180.156 435.735 179.82C435.647 179.476 435.463 179.184 435.183 178.944C434.903 178.704 434.499 178.516 433.971 178.38C433.451 178.244 432.751 178.176 431.871 178.176V176.064C432.599 176.056 433.203 175.988 433.683 175.86C434.163 175.732 434.543 175.556 434.823 175.332C435.111 175.1 435.311 174.824 435.423 174.504C435.535 174.184 435.591 173.832 435.591 173.448C435.591 172.632 435.363 172.012 434.907 171.588C434.451 171.164 433.843 170.952 433.083 170.952C432.731 170.952 432.407 171.004 432.111 171.108C431.815 171.204 431.547 171.344 431.307 171.528C431.075 171.704 430.879 171.912 430.719 172.152C430.559 172.392 430.439 172.656 430.359 172.944C430.223 173.312 430.043 173.556 429.819 173.676C429.603 173.796 429.295 173.824 428.895 173.76L427.335 173.484Z" fill="#A349A4"/>
<rect x="427.5" y="476.5" width="25" height="25" transform="rotate(-90 427.5 476.5)" fill="#AAAAAA" stroke="#BBBBBB"/>
<rect x="427.5" y="450.5" width="25" height="25" transform="rotate(-90 427.5 450.5)" fill="#141414" stroke="#BBBBBB"/>
<rect x="427.5" y="424.5" width="25" height="25" transform="matrix(0 -1 1 0 3 852)" fill="#141414" stroke="#BBBBBB"/>
<rect x="427.5" y="398.5" width="25" height="25" transform="rotate(-90 427.5 398.5)" fill="#141414" stroke="#BBBBBB"/>
<rect x="427.5" y="372.5" width="25" height="25" transform="rotate(-90 427.5 372.5)" fill="#141414" stroke="#BBBBBB"/>
<rect x="453.5" y="476.5" width="25" height="25" transform="rotate(-90 453.5 476.5)" fill="#FFDC00" stroke="#BBBBBB"/>
<rect x="453.5" y="450.5" width="25" height="25" transform="matrix(0 -1 1 0 3 904)" fill="#AAAAAA" stroke="#BBBBBB"/>
<rect x="453.5" y="424.5" width="25" height="25" transform="rotate(-90 453.5 424.5)" fill="#141414" stroke="#BBBBBB"/>
<rect x="453.5" y="398.5" width="25" height="25" transform="rotate(-90 453.5 398.5)" fill="#141414" stroke="#BBBBBB"/>
<rect x="453.5" y="372.5" width="25" height="25" transform="rotate(-90 453.5 372.5)" fill="#141414" stroke="#BBBBBB"/>
<rect x="479.5" y="476.5" width="25" height="25" transform="matrix(0 -1 1 0 3 956)" fill="#870C25" stroke="#BBBBBB"/>
<rect x="479.5" y="450.5" width="25" height="25" transform="rotate(-90 479.5 450.5)" fill="#2ECC40" stroke="#BBBBBB"/>
<rect x="479.5" y="424.5" width="25" height="25" transform="rotate(-90 479.5 424.5)" fill="#AAAAAA" stroke="#BBBBBB"/>
<rect x="479.5" y="398.5" width="25" height="25" transform="rotate(-90 479.5 398.5)" fill="#141414" stroke="#BBBBBB"/>
<rect x="479.5" y="372.5" width="25" height="25" transform="rotate(-90 479.5 372.5)" fill="#141414" stroke="#BBBBBB"/>
<rect x="505.5" y="476.5" width="25" height="25" transform="rotate(-90 505.5 476.5)" fill="#FF4136" stroke="#BBBBBB"/>
<rect x="505.5" y="450.5" width="25" height="25" transform="rotate(-90 505.5 450.5)" fill="#7FDBFF" stroke="#BBBBBB"/>
<rect x="505.5" y="424.5" width="25" height="25" transform="rotate(-90 505.5 424.5)" fill="#0074D9" stroke="#BBBBBB"/>
<rect x="505.5" y="398.5" width="25" height="25" transform="rotate(-90 505.5 398.5)" fill="#AAAAAA" stroke="#BBBBBB"/>
<path d="M505.5 372.5V347.5H530.5V372.5H505.5Z" fill="#141414" stroke="#BBBBBB"/>
<rect x="531.5" y="476.5" width="25" height="25" transform="rotate(-90 531.5 476.5)" fill="#FF4136" stroke="#BBBBBB"/>
<rect x="531.5" y="450.5" width="25" height="25" transform="rotate(-90 531.5 450.5)" fill="#0074D9" stroke="#BBBBBB"/>
<rect x="531.5" y="424.5" width="25" height="25" transform="rotate(-90 531.5 424.5)" fill="#F012BE" stroke="#BBBBBB"/>
<rect x="531.5" y="398.5" width="25" height="25" transform="rotate(-90 531.5 398.5)" fill="#FF851B" stroke="#BBBBBB"/>
<rect x="531.5" y="372.5" width="25" height="25" transform="rotate(-90 531.5 372.5)" fill="#AAAAAA" stroke="#BBBBBB"/>
<path d="M434.583 335.46V329.784C434.583 329.248 434.619 328.656 434.691 328.008L429.303 335.46H434.583ZM439.347 335.46V337.176C439.347 337.336 439.295 337.476 439.191 337.596C439.087 337.708 438.939 337.764 438.747 337.764H437.163V342H434.583V337.764H427.263C427.063 337.764 426.887 337.704 426.735 337.584C426.583 337.456 426.487 337.3 426.447 337.116L426.135 335.616L434.355 324.636H437.163V335.46H439.347Z" fill="#A349A4"/>
<rect x="555.5" y="32.5" width="25" height="25" transform="rotate(90 555.5 32.5)" fill="#AAAAAA" stroke="#BBBBBB"/>
<rect x="555.5" y="58.5" width="25" height="25" transform="rotate(90 555.5 58.5)" fill="#141414" stroke="#BBBBBB"/>
<rect x="555.5" y="84.5" width="25" height="25" transform="rotate(90 555.5 84.5)" fill="#141414" stroke="#BBBBBB"/>
<rect x="555.5" y="110.5" width="25" height="25" transform="rotate(90 555.5 110.5)" fill="#141414" stroke="#BBBBBB"/>
<rect x="555.5" y="136.5" width="25" height="25" transform="rotate(90 555.5 136.5)" fill="#141414" stroke="#BBBBBB"/>
<rect x="529.5" y="32.5" width="25" height="25" transform="rotate(90 529.5 32.5)" fill="#FFDC00" stroke="#BBBBBB"/>
<rect x="529.5" y="58.5" width="25" height="25" transform="rotate(90 529.5 58.5)" fill="#AAAAAA" stroke="#BBBBBB"/>
<rect x="529.5" y="84.5" width="25" height="25" transform="rotate(90 529.5 84.5)" fill="#141414" stroke="#BBBBBB"/>
<rect x="529.5" y="110.5" width="25" height="25" transform="rotate(90 529.5 110.5)" fill="#141414" stroke="#BBBBBB"/>
<rect x="529.5" y="136.5" width="25" height="25" transform="rotate(90 529.5 136.5)" fill="#141414" stroke="#BBBBBB"/>
<rect x="503.5" y="32.5" width="25" height="25" transform="rotate(90 503.5 32.5)" fill="#870C25" stroke="#BBBBBB"/>
<rect x="503.5" y="58.5" width="25" height="25" transform="rotate(90 503.5 58.5)" fill="#2ECC40" stroke="#BBBBBB"/>
<rect x="503.5" y="84.5" width="25" height="25" transform="rotate(90 503.5 84.5)" fill="#AAAAAA" stroke="#BBBBBB"/>
<rect x="503.5" y="110.5" width="25" height="25" transform="rotate(90 503.5 110.5)" fill="#141414" stroke="#BBBBBB"/>
<rect x="503.5" y="136.5" width="25" height="25" transform="rotate(90 503.5 136.5)" fill="#141414" stroke="#BBBBBB"/>
<rect x="477.5" y="32.5" width="25" height="25" transform="rotate(90 477.5 32.5)" fill="#FF4136" stroke="#BBBBBB"/>
<rect x="477.5" y="58.5" width="25" height="25" transform="rotate(90 477.5 58.5)" fill="#7FDBFF" stroke="#BBBBBB"/>
<rect x="477.5" y="84.5" width="25" height="25" transform="rotate(90 477.5 84.5)" fill="#0074D9" stroke="#BBBBBB"/>
<rect x="477.5" y="110.5" width="25" height="25" transform="rotate(90 477.5 110.5)" fill="#AAAAAA" stroke="#BBBBBB"/>
<path d="M477.5 136.5V161.5H452.5V136.5H477.5Z" fill="#141414" stroke="#BBBBBB"/>
<rect x="451.5" y="32.5" width="25" height="25" transform="rotate(90 451.5 32.5)" fill="#FF4136" stroke="#BBBBBB"/>
<rect x="451.5" y="58.5" width="25" height="25" transform="rotate(90 451.5 58.5)" fill="#0074D9" stroke="#BBBBBB"/>
<rect x="451.5" y="84.5" width="25" height="25" transform="rotate(90 451.5 84.5)" fill="#F012BE" stroke="#BBBBBB"/>
<rect x="451.5" y="110.5" width="25" height="25" transform="rotate(90 451.5 110.5)" fill="#FF851B" stroke="#BBBBBB"/>
<rect x="451.5" y="136.5" width="25" height="25" transform="rotate(90 451.5 136.5)" fill="#AAAAAA" stroke="#BBBBBB"/>
<path d="M437.811 24.24C438.131 24.24 438.383 24.332 438.567 24.516C438.759 24.692 438.855 24.928 438.855 25.224V27H426.951V26.016C426.951 25.816 426.991 25.608 427.071 25.392C427.159 25.168 427.295 24.968 427.479 24.792L432.747 19.512C433.187 19.064 433.579 18.636 433.923 18.228C434.275 17.82 434.567 17.416 434.799 17.016C435.031 16.616 435.207 16.212 435.327 15.804C435.455 15.388 435.519 14.952 435.519 14.496C435.519 14.08 435.459 13.716 435.339 13.404C435.219 13.084 435.047 12.816 434.823 12.6C434.607 12.384 434.343 12.224 434.031 12.12C433.727 12.008 433.383 11.952 432.999 11.952C432.647 11.952 432.319 12.004 432.015 12.108C431.719 12.204 431.455 12.344 431.223 12.528C430.991 12.704 430.795 12.912 430.635 13.152C430.475 13.392 430.355 13.656 430.275 13.944C430.139 14.312 429.963 14.556 429.747 14.676C429.531 14.796 429.219 14.824 428.811 14.76L427.251 14.484C427.371 13.652 427.603 12.924 427.947 12.3C428.291 11.668 428.719 11.144 429.231 10.728C429.751 10.304 430.343 9.988 431.007 9.78C431.679 9.564 432.399 9.456 433.167 9.456C433.967 9.456 434.699 9.576 435.363 9.816C436.027 10.048 436.595 10.38 437.067 10.812C437.539 11.244 437.907 11.764 438.171 12.372C438.435 12.98 438.567 13.656 438.567 14.4C438.567 15.04 438.471 15.632 438.279 16.176C438.095 16.72 437.843 17.24 437.523 17.736C437.211 18.232 436.843 18.712 436.419 19.176C435.995 19.64 435.551 20.112 435.087 20.592L431.175 24.588C431.551 24.476 431.923 24.392 432.291 24.336C432.667 24.272 433.023 24.24 433.359 24.24H437.811Z" fill="#A349A4"/>
<rect x="-0.5" y="0.5" width="25" height="25" transform="matrix(-1 0 0 1 556 500)" fill="#AAAAAA" stroke="#BBBBBB"/>
<rect x="-0.5" y="0.5" width="25" height="25" transform="matrix(-1 0 0 1 530 500)" fill="#141414" stroke="#BBBBBB"/>
<rect x="-0.5" y="0.5" width="25" height="25" transform="matrix(-1 0 0 1 504 500)" fill="#141414" stroke="#BBBBBB"/>
<rect x="-0.5" y="0.5" width="25" height="25" transform="matrix(-1 0 0 1 478 500)" fill="#141414" stroke="#BBBBBB"/>
<rect x="-0.5" y="0.5" width="25" height="25" transform="matrix(-1 0 0 1 452 500)" fill="#141414" stroke="#BBBBBB"/>
<rect x="-0.5" y="0.5" width="25" height="25" transform="matrix(-1 0 0 1 556 526)" fill="#FFDC00" stroke="#BBBBBB"/>
<rect x="-0.5" y="0.5" width="25" height="25" transform="matrix(-1 0 0 1 530 526)" fill="#AAAAAA" stroke="#BBBBBB"/>
<rect x="-0.5" y="0.5" width="25" height="25" transform="matrix(-1 0 0 1 504 526)" fill="#141414" stroke="#BBBBBB"/>
<rect x="-0.5" y="0.5" width="25" height="25" transform="matrix(-1 0 0 1 478 526)" fill="#141414" stroke="#BBBBBB"/>
<rect x="-0.5" y="0.5" width="25" height="25" transform="matrix(-1 0 0 1 452 526)" fill="#141414" stroke="#BBBBBB"/>
<rect x="-0.5" y="0.5" width="25" height="25" transform="matrix(-1 0 0 1 556 552)" fill="#870C25" stroke="#BBBBBB"/>
<rect x="-0.5" y="0.5" width="25" height="25" transform="matrix(-1 0 0 1 530 552)" fill="#2ECC40" stroke="#BBBBBB"/>
<rect x="-0.5" y="0.5" width="25" height="25" transform="matrix(-1 0 0 1 504 552)" fill="#AAAAAA" stroke="#BBBBBB"/>
<rect x="-0.5" y="0.5" width="25" height="25" transform="matrix(-1 0 0 1 478 552)" fill="#141414" stroke="#BBBBBB"/>
<rect x="-0.5" y="0.5" width="25" height="25" transform="matrix(-1 0 0 1 452 552)" fill="#141414" stroke="#BBBBBB"/>
<rect x="-0.5" y="0.5" width="25" height="25" transform="matrix(-1 0 0 1 556 578)" fill="#FF4136" stroke="#BBBBBB"/>
<rect x="-0.5" y="0.5" width="25" height="25" transform="matrix(-1 0 0 1 530 578)" fill="#7FDBFF" stroke="#BBBBBB"/>
<rect x="-0.5" y="0.5" width="25" height="25" transform="matrix(-1 0 0 1 504 578)" fill="#0074D9" stroke="#BBBBBB"/>
<rect x="-0.5" y="0.5" width="25" height="25" transform="matrix(-1 0 0 1 478 578)" fill="#AAAAAA" stroke="#BBBBBB"/>
<path d="M452.5 578.5H427.5V603.5H452.5V578.5Z" fill="#141414" stroke="#BBBBBB"/>
<rect x="-0.5" y="0.5" width="25" height="25" transform="matrix(-1 0 0 1 556 604)" fill="#FF4136" stroke="#BBBBBB"/>
<rect x="-0.5" y="0.5" width="25" height="25" transform="matrix(-1 0 0 1 530 604)" fill="#0074D9" stroke="#BBBBBB"/>
<rect x="-0.5" y="0.5" width="25" height="25" transform="matrix(-1 0 0 1 504 604)" fill="#F012BE" stroke="#BBBBBB"/>
<rect x="-0.5" y="0.5" width="25" height="25" transform="matrix(-1 0 0 1 478 604)" fill="#FF851B" stroke="#BBBBBB"/>
<rect x="-0.5" y="0.5" width="25" height="25" transform="matrix(-1 0 0 1 452 604)" fill="#AAAAAA" stroke="#BBBBBB"/>
<path d="M430.911 483.948C431.295 483.868 431.663 483.812 432.015 483.78C432.367 483.74 432.707 483.72 433.035 483.72C433.947 483.72 434.751 483.856 435.447 484.128C436.143 484.4 436.727 484.776 437.199 485.256C437.671 485.736 438.027 486.3 438.267 486.948C438.507 487.588 438.627 488.28 438.627 489.024C438.627 489.944 438.463 490.784 438.135 491.544C437.815 492.304 437.367 492.956 436.791 493.5C436.215 494.036 435.531 494.452 434.739 494.748C433.955 495.044 433.099 495.192 432.171 495.192C431.627 495.192 431.111 495.136 430.623 495.024C430.135 494.912 429.675 494.764 429.243 494.58C428.819 494.388 428.423 494.172 428.055 493.932C427.695 493.684 427.371 493.424 427.083 493.152L427.995 491.892C428.187 491.62 428.439 491.484 428.751 491.484C428.951 491.484 429.155 491.548 429.363 491.676C429.571 491.804 429.807 491.944 430.071 492.096C430.343 492.248 430.659 492.388 431.019 492.516C431.387 492.644 431.827 492.708 432.339 492.708C432.883 492.708 433.363 492.62 433.779 492.444C434.195 492.268 434.539 492.024 434.811 491.712C435.091 491.392 435.299 491.016 435.435 490.584C435.579 490.144 435.651 489.668 435.651 489.156C435.651 488.212 435.375 487.476 434.823 486.948C434.279 486.412 433.471 486.144 432.399 486.144C431.575 486.144 430.731 486.296 429.867 486.6L428.019 486.072L429.459 477.648H438.027V478.908C438.027 479.332 437.895 479.676 437.631 479.94C437.367 480.204 436.919 480.336 436.287 480.336H431.523L430.911 483.948Z" fill="#A349A4"/>
<path d="M849 334L839 328.226V339.774L849 334ZM769 335H840V333H769V335Z" fill="#141414"/>
<path d="M426 110L416.67 116.803L427.226 121.482L426 110ZM344.914 295.405L423.267 118.633L421.439 117.823L343.086 294.595L344.914 295.405Z" fill="#141414"/>
<path d="M426 552L427.084 540.504L416.586 545.313L426 552ZM343.091 373.416L421.343 544.234L423.161 543.401L344.909 372.584L343.091 373.416Z" fill="#141414"/>
<path d="M426 269L414.466 269.544L420.704 279.261L426 269ZM345.54 321.842L418.967 274.704L417.886 273.021L344.46 320.158L345.54 321.842Z" fill="#141414"/>
<path d="M426 399L420.704 388.739L414.466 398.456L426 399ZM344.46 347.842L417.886 394.979L418.967 393.296L345.54 346.158L344.46 347.842Z" fill="#141414"/>
<path d="M638 294L628.67 287.197L639.226 282.518L638 294ZM556.914 108.595L635.267 285.367L633.439 286.177L555.086 109.405L556.914 108.595Z" fill="#141414"/>
<path d="M638 321L626.466 320.456L632.704 310.739L638 321ZM557.54 268.158L630.967 315.296L629.886 316.979L556.46 269.842L557.54 268.158Z" fill="#141414"/>
<path d="M638 347L632.704 357.261L626.466 347.544L638 347ZM556.46 398.158L629.886 351.021L630.967 352.704L557.54 399.842L556.46 398.158Z" fill="#141414"/>
<path d="M638 373L639.084 384.496L628.586 379.687L638 373ZM555.091 551.584L633.343 380.766L635.161 381.599L556.909 552.416L555.091 551.584Z" fill="#141414"/>
</svg>
